<svg width="20" height="20" viewBox="0 0 20 20" fill="none" xmlns="http://www.w3.org/2000/svg">
<rect width="20" height="20" rx="3" fill="#757AE9"/>
<path fill-rule="evenodd" clip-rule="evenodd" d="M15.1536 4.9214C15.1536 4.68867 14.9659 4.5 14.7345 4.5C14.503 4.5 14.3154 4.68867 14.3154 4.9214V5.89792L5.29154 8.7768C5.21418 8.80148 5.12991 8.79019 5.06167 8.74601L3.41989 7.68296C3.23861 7.56558 3 7.69645 3 7.91326V12.1307C3 12.3495 3.24239 12.48 3.42343 12.3587L5.06124 11.2616C5.12966 11.2158 5.21499 11.2035 5.29346 11.2281L6.14709 11.4962C5.91894 11.8856 5.78787 12.3398 5.78787 12.8243C5.78787 14.2713 6.95446 15.4444 8.39351 15.4444C9.13261 15.4444 9.81881 15.0859 10.3129 14.5751C10.7108 14.1638 11.0073 13.63 11.1078 13.0536L14.3154 14.0607V15.0351C14.3154 15.2679 14.503 15.4565 14.7345 15.4565C14.9659 15.4565 15.1536 15.2679 15.1536 15.0351V12.3884C16.2046 12.1907 17 11.2634 17 10.1493C17 9.03512 16.2046 8.10779 15.1536 7.91014V4.9214ZM15.1536 8.77691V11.5216C15.7374 11.3416 16.1618 10.7953 16.1618 10.1493C16.1618 9.50326 15.7374 8.95694 15.1536 8.77691ZM6.62605 12.8243C6.62605 12.4238 6.75742 12.0548 6.97968 11.7576L10.2975 12.7992C10.2516 13.2235 10.0385 13.65 9.7121 13.9874C9.34198 14.3701 8.86202 14.6015 8.39351 14.6015C7.41737 14.6015 6.62605 13.8058 6.62605 12.8243Z" fill="white"/>
</svg>
