<svg width="20" height="20" viewBox="0 0 20 20" fill="none" xmlns="http://www.w3.org/2000/svg">
<rect width="20" height="20" rx="3" fill="#E1E3EF"/>
<path d="M16.9999 13.0017V8.92969H14.3964C13.6586 8.92969 12.9806 9.33597 12.6327 9.98668L12.6172 10.0158C12.2692 10.6665 11.5913 11.0728 10.8534 11.0728H8.9669C8.26952 11.0728 7.64229 10.6485 7.38273 10.0012C7.12317 9.35395 6.49594 8.92969 5.79856 8.92969H2.9999V13.0017C2.9999 14.1063 3.89533 15.0017 4.9999 15.0017H14.9999C16.1045 15.0017 16.9999 14.1063 16.9999 13.0017Z" fill="#A9ABC1"/>
<path fill-rule="evenodd" clip-rule="evenodd" d="M4.04617 6.10547C4.41671 5.13846 5.34508 4.5 6.38065 4.5H13.5655C14.586 4.5 15.504 5.12024 15.8849 6.067L17.0264 8.90472L16.0986 9.27792L14.9571 6.4402C14.7286 5.87215 14.1778 5.5 13.5655 5.5H6.38065C5.75931 5.5 5.20229 5.88308 4.97996 6.46328L3.9044 9.27022L2.9706 8.91241L4.04617 6.10547Z" fill="#A9ABC1"/>
</svg>
