<svg width="16" height="16" viewBox="0 0 16 16" fill="none" xmlns="http://www.w3.org/2000/svg">
<path opacity="0.6" fill-rule="evenodd" clip-rule="evenodd" d="M12.6584 1.94375C13.9571 3.01802 14.1259 4.92744 13.0354 6.20856L7.1238 13.1535C7.08345 13.2042 7.03311 13.2474 6.97493 13.28C6.92377 13.3087 6.86838 13.328 6.81146 13.3379L2.78143 14.1613C2.62934 14.1924 2.47124 14.1531 2.35231 14.0547C2.23338 13.9564 2.1667 13.8097 2.17134 13.6567L2.29285 9.64399C2.28087 9.51566 2.31887 9.3828 2.40958 9.27624L8.33226 2.31829C9.42276 1.03717 11.3596 0.869485 12.6584 1.94375ZM3.30434 9.78159L9.10976 2.9614C9.83971 2.10386 11.1362 1.99161 12.0055 2.7107C12.8749 3.42978 12.9879 4.7079 12.2579 5.56545L6.44886 12.3899L3.20529 13.0527L3.30434 9.78159Z" fill="#282B42"/>
<path d="M15.4453 14.9986L2.99902 14.9986" stroke="#7E808E" stroke-linecap="round"/>
</svg>
