<svg xmlns="http://www.w3.org/2000/svg" width="12" height="11" viewBox="0 0 12 11" fill="none">
<path d="M5.28555 0.620343C5.60365 0.0598869 6.39635 0.0598864 6.71445 0.620343L11.8875 9.7344C12.2065 10.2964 11.8093 11 11.173 11H0.826965C0.190745 11 -0.206463 10.2964 0.11251 9.7344L5.28555 0.620343Z" fill="#DD9553"/>
<path fill-rule="evenodd" clip-rule="evenodd" d="M5.99394 8.06323C5.68856 8.06323 5.441 8.31595 5.441 8.62771C5.441 8.93946 5.68856 9.19219 5.99394 9.19219C6.29932 9.19219 6.54688 8.93946 6.54688 8.62771C6.54688 8.31595 6.29932 8.06323 5.99394 8.06323ZM5.63735 7.01492C5.63735 7.21638 5.79724 7.37969 5.99446 7.37969C6.19168 7.37969 6.35156 7.21638 6.35156 7.01492V3.78746C6.35156 3.58601 6.19168 3.42269 5.99446 3.42269C5.79724 3.42269 5.63735 3.58601 5.63735 3.78746V7.01492Z" fill="white"/>
</svg>