<svg xmlns="http://www.w3.org/2000/svg" width="12" height="12" viewBox="0 0 12 12" fill="none">
<path d="M6.0285 5.24387H6.40051V8.29787L6.5625 8.41186L7.07251 8.44787V8.70587H4.9425V8.44787L5.44051 8.41186L5.60251 8.29787V5.71786H4.9425V5.49586L6.0285 5.24387Z" fill="#696D8B"/>
<path d="M6.00612 3.30191C6.16212 3.30191 6.30011 3.35591 6.40811 3.46991C6.51611 3.58391 6.57012 3.71591 6.57012 3.86591C6.57012 4.01591 6.51611 4.15391 6.40811 4.26191C6.30011 4.36991 6.16812 4.42391 6.00612 4.42391C5.84412 4.42391 5.71811 4.36991 5.61011 4.26191C5.50211 4.15391 5.44812 4.02191 5.44812 3.86591C5.44812 3.70991 5.50211 3.57191 5.61011 3.46391C5.71811 3.35591 5.85012 3.30191 6.00612 3.30191Z" fill="#696D8B"/>
<path d="M6 12C2.694 12 0 9.306 0 6C0 2.694 2.694 0 6 0C9.306 0 12 2.694 12 6C12 9.306 9.306 12 6 12ZM6 0.786001C3.126 0.786001 0.785999 3.126 0.785999 6C0.785999 8.874 3.126 11.214 6 11.214C8.874 11.214 11.214 8.874 11.214 6C11.214 3.126 8.874 0.786001 6 0.786001Z" fill="#696D8B"/>
</svg>